<?xml version="1.0" encoding="utf-8"?>
<!-- Generator: Adobe Illustrator 17.1.0, SVG Export Plug-In . SVG Version: 6.00 Build 0)  -->
<!DOCTYPE svg PUBLIC "-//W3C//DTD SVG 1.1//EN" "http://www.w3.org/Graphics/SVG/1.1/DTD/svg11.dtd">
<svg version="1.1" id="Layer_1" xmlns="http://www.w3.org/2000/svg" xmlns:xlink="http://www.w3.org/1999/xlink" x="0px" y="0px"
	 viewBox="0 0 300 300" enable-background="new 0 0 300 300" xml:space="preserve">
<title>search icon</title>
<g>
	<title>Layer 1</title>
	<path id="path12423" fill="#00d148" d="M35.9,35.1C-7.3,78.4-7.4,149.2,35.8,192.5c36.7,36.7,93.2,42.3,135.9,16.8l76.3,74.2
		c10.5,10.2,27.1,9.8,37.1-0.8c10-10.7,9.8-27.4-0.7-37.6l-75.2-72.9c26.4-42.8,21-100-16-137.1C150-8.2,79.2-8.2,35.9,35.1
		L35.9,35.1C35.9,35.1,35.9,35.1,35.9,35.1z M67.7,66.8c26.1-26.1,67.7-26.1,93.8,0c26.1,26.1,26.1,67.7,0,93.8
		c-26.1,26.1-67.7,26.1-93.8,0C41.6,134.6,41.6,92.9,67.7,66.8z"/>
</g>
</svg>
