<svg id="Слой_1" data-name="Слой 1" xmlns="http://www.w3.org/2000/svg" viewBox="0 0 11 11"><defs><style>.cls-1{fill:#00d148;}</style></defs><title>phone</title><path class="cls-1" d="M112.35,72.52l0.79,1.23a1,1,0,0,1,.08.9,4.17,4.17,0,0,0-.35,1.26h0c0,1.19,1.52,3,3.06,3.58a1.94,1.94,0,0,0,1.55-.36,0.81,0.81,0,0,1,.94,0l1.17,0.92a1.11,1.11,0,0,1,.18,1.55,8.76,8.76,0,0,1-1,1,1.08,1.08,0,0,1-.72.29c-3.92-.07-10-7.8-9-9.27h0l1.51-1.43A1.11,1.11,0,0,1,112.35,72.52Z" transform="translate(-109 -72)"/></svg>